# xmcd
#
# Track frame offsets:
#	150
#	17194
#	32240
#	49551
#	65591
#	83449
#	100015
#	119531
#	134437
#	151355
#	165609
#	183688
#	201549
#	217177
#	237007
#	256125
#	277127
#	293546
#	307397
#	333816
#
# Disc length: 4795 seconds
#
# Revision: 1
# Processed by: cddbd v1.5.1PL0 Copyright (c) Steve Scherf et al.
# Submitted via: audiograbber 1.83.01
#
DISCID=2b12b914
DTITLE=Various Artist - Now That's What I Call Music! 7
DYEAR=2004
DGENRE=Pop
TTITLE0=The Black Eyed Peas - Shut Up
TTITLE1=Britney Spears - Toxic
TTITLE2=One-T and Cool-T - The Magic Key
TTITLE3=Blue feat. Stevie Wonder and Angie Stone - Signed, Sealed, Delivered I'm 
TTITLE3=Yours
TTITLE4=Outkast - Hey Ya!
TTITLE5=Alex - So Beautiful
TTITLE6=Kylie Minogue - Red Blooded Woman
TTITLE7=Westlife - Mandy
TTITLE8=Pink - God Is A DJ
TTITLE9=Bent Fabric - Shake
TTITLE10=Swan Lee - I Don't Mind
TTITLE11=Beyoncé - Me, Myself And I
TTITLE12=Erann DD - Say Something Nice
TTITLE13=Christina Aguilera - The Voice Within
TTITLE14=L.O.C. - Undskyld
TTITLE15=Lisa Miskovsky - Lady Stardust
TTITLE16=Justin Timberlake - I'm Lovin' It
TTITLE17=Michael Andrews feat. Gary Jules - Mad World
TTITLE18=Norah Jones - Sunrise
TTITLE19=Data Track - Data Track
EXTD=
EXTT0=
EXTT1=
EXTT2=
EXTT3=
EXTT4=
EXTT5=
EXTT6=
EXTT7=
EXTT8=
EXTT9=
EXTT10=
EXTT11=
EXTT12=
EXTT13=
EXTT14=
EXTT15=
EXTT16=
EXTT17=
EXTT18=
EXTT19=
PLAYORDER=
